<svg xmlns="http://www.w3.org/2000/svg" width="140.662" height="150" viewBox="0 0 140.662 150"><defs><style>.a{fill:#264674;}</style></defs><path class="a" d="M48.75,95.508a5.859,5.859,0,0,1,5.859,5.859h0a5.859,5.859,0,0,1-11.719,0h0A5.859,5.859,0,0,1,48.75,95.508Zm16.113,5.859h0a5.859,5.859,0,0,0,11.719,0h0a5.859,5.859,0,0,0-11.719,0Zm21.973,0h0a5.859,5.859,0,1,0,11.719,0h0a5.859,5.859,0,1,0-11.719,0Zm31.348,42.773A5.859,5.859,0,0,1,112.324,150H39.375a23.464,23.464,0,0,1-23.438-23.437V78.516A23.464,23.464,0,0,1,39.375,55.078h7.02V34.414C46.395,15.438,62.166,0,81.551,0s35.156,15.438,35.156,34.414V55.078h7.042a23.283,23.283,0,0,1,6.464.812,5.859,5.859,0,0,1-3.228,11.266,11.929,11.929,0,0,0-3.236-.359H39.374A11.732,11.732,0,0,0,27.656,78.515v48.047a11.732,11.732,0,0,0,11.719,11.719h72.949A5.86,5.86,0,0,1,118.183,144.141ZM58.114,55.078h46.875V34.414c0-12.514-10.514-22.7-23.438-22.7S58.114,21.9,58.114,34.414Zm77.648,83.2h0a5.859,5.859,0,0,0,0,11.719h0a5.859,5.859,0,1,0,0-11.719Zm20.833-41.247a20.808,20.808,0,0,0-41.615.239,5.859,5.859,0,1,0,11.719,0,9.089,9.089,0,0,1,18.179,0q0,.08,0,.159a9.086,9.086,0,0,1-5.527,8.213,15.585,15.585,0,0,0-9.424,14.385V125.1a5.859,5.859,0,0,0,11.719,0V120.03a3.882,3.882,0,0,1,2.307-3.607A20.789,20.789,0,0,0,156.6,97.272Q156.6,97.152,156.594,97.034Z" transform="translate(-15.937)"/></svg>