<svg xmlns="http://www.w3.org/2000/svg" xmlns:xlink="http://www.w3.org/1999/xlink" width="63" height="63" viewBox="0 0 63 63">
  <defs>
    <clipPath id="clip-ApplyNow">
      <rect width="63" height="63"/>
    </clipPath>
  </defs>
  <g id="ApplyNow" clip-path="url(#clip-ApplyNow)">
    <g id="Group_1548" data-name="Group 1548" transform="translate(-1323.244 -438.447)">
      <g id="Group_1545" data-name="Group 1545" transform="translate(1335.879 445.544)">
        <path id="Path_20929" data-name="Path 20929" d="M-3981.795,3974.431h-39.956v-.8c0-2.556.06-5.115-.026-7.668a2.868,2.868,0,0,1,1.329-2.725c1.586-1,3.229-1.916,4.9-2.764,2.138-1.085,4.337-2.049,6.492-3.1.985-.481,1.27-.449,1.772.521.99,1.914,1.926,3.856,2.942,5.756a14.132,14.132,0,0,0,1.524,2.278c.734.9,1.383.919,2.077.006a25.708,25.708,0,0,0,2.064-3.254c.887-1.631,1.666-3.32,2.517-4.971.371-.718.734-.79,1.462-.445,2.659,1.263,5.323,2.512,7.982,3.773a13.522,13.522,0,0,1,4.211,2.74,2.436,2.436,0,0,1,.721,1.8C-3981.81,3968.5-3981.795,3971.43-3981.795,3974.431Z" transform="translate(4021.78 -3928.266)" fill="#fff"/>
        <path id="Path_20930" data-name="Path 20930" d="M-3960.083,3772.848c-1.062.51-2.026.948-2.96,1.443-.156.083-.23.409-.259.633-.172,1.351-.332,2.7-.463,4.059a1.149,1.149,0,0,0,.188.729,3.731,3.731,0,0,1-.931,4.923,2,2,0,0,0-.722,1.04,8.2,8.2,0,0,1-6.175,6.021,6.663,6.663,0,0,1-6.122-1.731,8.35,8.35,0,0,1-2.758-4.316,1.985,1.985,0,0,0-.793-1.067,3.865,3.865,0,0,1-.924-4.78,1.376,1.376,0,0,0,.26-.846c-.117-1.331-.31-2.656-.431-3.987a.884.884,0,0,0-.558-.847c-1.434-.675-2.858-1.373-4.263-2.106-.294-.154-.674-.49-.681-.751s.35-.64.639-.783c4.44-2.2,8.9-4.356,13.344-6.536a2.038,2.038,0,0,1,1.918.014c4.426,2.169,8.86,4.32,13.279,6.5.3.146.664.5.674.766s-.357.632-.646.77a.944.944,0,0,0-.584,1.046c.033.917-.024,1.838.025,2.754a7.171,7.171,0,0,0,.318,1.232c.057.235.2.562.1.7-.531.742-.129,1.477-.06,2.212.02.221.117.438.116.657,0,.392.012,1.1-.091,1.124a7.676,7.676,0,0,1-1.869.066c-.071,0-.188-.376-.171-.567.043-.467.165-.926.23-1.391.1-.688.454-1.378-.06-2.066a.6.6,0,0,1,.019-.566c.7-.827.335-1.8.408-2.707C-3960.05,3774-3960.083,3773.5-3960.083,3772.848Z" transform="translate(3992.755 -3763.711)" fill="#fff"/>
      </g>
    </g>
  </g>
</svg>
